<svg t="1729830942468" class="icon" viewBox="0 0 1024 1024" version="1.1" xmlns="http://www.w3.org/2000/svg" p-id="20547" width="24" height="24"><path d="M213.333333 128 810.666667 128C857.6 128 896 166.4 896 213.333333L896 810.666667C896 857.6 857.6 896 810.666667 896L213.333333 896C166.4 896 128 857.6 128 810.666667L128 213.333333C128 166.4 166.4 128 213.333333 128M320 640C284.586667 640 256 668.586667 256 704 256 739.413333 284.586667 768 320 768 355.413333 768 384 739.413333 384 704 384 668.586667 355.413333 640 320 640M256 426.666667 256 512C397.226667 512 512 626.773333 512 768L597.333333 768C597.333333 579.413333 444.586667 426.666667 256 426.666667M256 256 256 341.333333C491.52 341.333333 682.666667 532.48 682.666667 768L768 768C768 485.12 538.88 256 256 256Z" p-id="20548" fill="#2c2c2c"></path></svg>